<?xml version="1.0" standalone="no"?>
<!DOCTYPE svg PUBLIC "-//W3C//DTD SVG 20010904//EN"
 "http://www.w3.org/TR/2001/REC-SVG-20010904/DTD/svg10.dtd">
<svg version="1.0" xmlns="http://www.w3.org/2000/svg"
 width="152.000000pt" height="152.000000pt" viewBox="0 0 152.000000 152.000000"
 preserveAspectRatio="xMidYMid meet">
<metadata>
Created by potrace 1.11, written by Peter Selinger 2001-2013
</metadata>
<g transform="translate(0.000000,152.000000) scale(0.100000,-0.100000)"
fill="#000000" stroke="none">
<path d="M497 1103 c-3 -5 -7 -45 -8 -88 -2 -80 -2 -80 24 -83 27 -3 27 -3 27
63 l0 66 185 -1 185 -2 32 -31 c28 -26 30 -32 16 -35 -24 -5 -23 -10 11 -60
l28 -43 27 45 c30 51 31 56 14 56 -7 0 -22 17 -33 37 -41 75 -50 78 -290 81
-117 2 -215 -1 -218 -5z"/>
<path d="M483 854 c-27 -41 -29 -54 -9 -54 11 0 14 -25 15 -127 1 -69 4 -130
7 -135 3 -4 50 -8 105 -8 87 0 99 2 100 18 1 9 2 39 3 67 l1 50 40 1 c55 1 65
-10 65 -72 0 -29 5 -56 10 -59 18 -11 193 -6 200 5 4 6 6 44 5 85 -2 53 -8 83
-22 108 -20 33 -20 34 -2 56 28 34 25 71 -5 71 -17 0 -26 -7 -30 -26 -4 -16
-19 -30 -41 -40 -18 -7 -36 -18 -39 -23 -7 -11 20 -41 38 -41 27 0 47 -38 49
-92 l2 -53 -56 -3 -57 -3 0 33 c0 44 -17 85 -39 96 -10 5 -51 9 -91 10 -82 0
-84 -2 -79 -91 l2 -47 -57 0 -58 0 0 110 c0 91 3 110 15 110 8 0 15 2 15 5 0
11 -51 85 -58 85 -4 -1 -17 -17 -29 -36z"/>
<path d="M250 385 c0 -30 5 -55 10 -55 6 0 10 11 10 24 0 19 5 24 25 22 16 -1
26 -8 30 -23 14 -56 23 -10 16 80 -1 4 -21 7 -46 7 l-45 0 0 -55z m71 21 c-15
-18 -51 -17 -51 1 0 8 12 13 31 13 26 0 29 -2 20 -14z"/>
<path d="M1150 429 c0 -5 5 -7 10 -4 6 3 10 8 10 11 0 2 -4 4 -10 4 -5 0 -10
-5 -10 -11z"/>
<path d="M378 408 c-24 -20 -29 -46 -11 -63 18 -19 64 -16 71 3 3 11 0 12 -14
4 -20 -10 -44 -6 -44 7 0 5 11 7 24 6 13 -2 29 1 37 6 11 8 10 13 -10 29 -27
23 -32 24 -53 8z m37 -18 c3 -5 -3 -10 -15 -10 -12 0 -18 5 -15 10 3 6 10 10
15 10 5 0 12 -4 15 -10z"/>
<path d="M478 412 c-10 -2 -18 -12 -18 -23 0 -14 9 -21 32 -26 27 -5 29 -7 13
-14 -11 -3 -24 -3 -29 2 -15 14 -26 11 -20 -6 7 -18 55 -20 72 -3 10 10 14 10
21 0 5 -8 21 -12 37 -10 41 4 41 41 -1 48 -25 5 -27 7 -11 13 10 4 25 2 32 -4
11 -9 14 -8 14 4 0 19 -45 28 -66 12 -15 -10 -15 -13 1 -28 9 -9 23 -17 31
-17 8 0 12 -4 9 -10 -4 -6 -21 -2 -45 10 -22 11 -46 20 -55 20 -8 0 -15 5 -15
10 0 14 23 13 38 -2 9 -9 12 -8 12 4 0 17 -24 26 -52 20z"/>
<path d="M658 413 c-23 -6 -34 -49 -18 -68 24 -29 77 -15 85 23 3 19 -28 55
-45 51 -3 -1 -13 -3 -22 -6z m41 -32 c12 -21 5 -31 -21 -31 -23 0 -36 29 -17
41 20 13 27 11 38 -10z"/>
<path d="M738 387 c-6 -50 -1 -57 43 -57 39 0 39 0 39 40 0 22 -4 40 -10 40
-5 0 -10 -10 -10 -22 0 -32 -14 -50 -32 -43 -10 4 -15 16 -13 30 1 13 -1 29
-5 35 -4 7 -9 -3 -12 -23z"/>
<path d="M855 411 c-15 -5 -21 -15 -22 -43 -1 -21 3 -38 8 -38 5 0 9 10 9 23
0 23 17 47 32 47 4 0 8 -11 8 -24 0 -13 7 -29 14 -36 18 -14 58 -10 64 7 2 9
-5 11 -27 7 -27 -6 -31 -4 -31 14 0 27 15 36 39 22 11 -5 22 -6 25 -1 9 14
-43 32 -63 22 -10 -6 -22 -6 -27 -2 -5 4 -18 5 -29 2z"/>
<path d="M999 399 c-23 -23 -22 -47 2 -62 19 -12 69 -1 69 14 0 7 -7 8 -17 4
-29 -11 -35 -11 -39 1 -3 5 6 10 18 11 13 0 30 3 39 7 13 6 16 2 14 -19 -2
-15 1 -25 8 -22 6 2 11 14 12 26 1 13 9 28 18 33 27 14 20 25 -13 20 -16 -2
-27 -8 -24 -13 8 -14 -9 -10 -30 6 -26 20 -32 19 -57 -6z m51 -9 c0 -5 -6 -10
-14 -10 -8 0 -18 5 -21 10 -3 6 3 10 14 10 12 0 21 -4 21 -10z"/>
<path d="M1196 407 c-12 -9 -17 -23 -14 -42 2 -25 8 -31 32 -33 16 -2 33 1 39
7 15 15 1 26 -16 13 -8 -7 -18 -7 -27 -2 -8 6 -13 10 -10 11 3 0 18 3 35 5 41
7 44 13 16 35 -28 23 -32 23 -55 6z m39 -17 c3 -5 -3 -10 -15 -10 -12 0 -18 5
-15 10 3 6 10 10 15 10 5 0 12 -4 15 -10z"/>
<path d="M1149 395 c-4 -45 -1 -70 8 -61 10 10 11 76 1 76 -4 0 -9 -7 -9 -15z"/>
<path d="M290 290 c-8 -5 -23 -11 -33 -14 -29 -9 -19 -60 12 -64 13 -2 27 2
32 9 6 10 11 10 21 1 8 -6 24 -10 36 -9 18 1 22 7 22 36 0 19 -3 31 -7 27 -8
-8 -9 -13 -12 -41 -2 -24 -31 -5 -31 21 0 17 -4 22 -15 18 -11 -5 -13 -2 -9
10 7 18 5 19 -16 6z m0 -46 c0 -8 -9 -14 -20 -14 -19 0 -27 19 -14 33 10 9 34
-4 34 -19z"/>
<path d="M431 253 c0 -47 1 -47 16 -25 8 12 23 22 33 22 22 0 35 31 18 42 -7
4 -25 8 -40 8 -27 0 -28 -2 -27 -47z m54 17 c-3 -5 -13 -10 -21 -10 -8 0 -14
5 -14 10 0 6 9 10 21 10 11 0 17 -4 14 -10z"/>
<path d="M788 279 c-32 -16 -36 -22 -29 -41 6 -17 16 -23 37 -23 27 0 29 3 31
43 1 23 1 42 0 41 -1 -1 -19 -10 -39 -20z m22 -34 c0 -18 -13 -25 -28 -16 -17
10 -4 41 14 34 8 -3 14 -11 14 -18z"/>
<path d="M959 295 c-3 -5 -5 -26 -5 -45 1 -34 2 -35 44 -36 l42 0 0 44 c0 52
-9 52 -13 1 -1 -19 -6 -33 -10 -31 -4 1 -16 2 -26 2 -16 0 -20 8 -23 38 -2 20
-6 33 -9 27z"/>
<path d="M1074 291 c3 -5 -1 -11 -9 -15 -24 -9 -19 -53 7 -61 15 -6 26 -1 40
16 11 13 17 19 14 13 -8 -16 20 -38 39 -30 10 3 14 2 9 -5 -3 -6 -15 -9 -25
-6 -11 3 -19 1 -19 -4 0 -5 14 -9 30 -9 27 0 35 8 31 33 -2 11 13 9 26 -4 18
-18 53 -1 53 26 0 32 -35 43 -61 19 -15 -14 -19 -14 -19 -3 0 18 -39 22 -58 6
-11 -9 -18 -7 -32 11 -18 21 -37 31 -26 13z m16 -31 c0 -5 -5 -10 -11 -10 -5
0 -7 5 -4 10 3 6 8 10 11 10 2 0 4 -4 4 -10z m154 2 c3 -5 -1 -9 -9 -9 -8 0
-12 4 -9 9 3 4 7 8 9 8 2 0 6 -4 9 -8z m-66 -19 c2 -8 -5 -13 -17 -13 -12 0
-21 6 -21 16 0 18 31 15 38 -3z m-78 -7 c0 -11 -19 -15 -25 -6 -3 5 1 10 9 10
9 0 16 -2 16 -4z m153 -3 c-7 -2 -19 -2 -25 0 -7 3 -2 5 12 5 14 0 19 -2 13
-5z"/>
<path d="M519 273 c-8 -50 -4 -58 28 -60 30 -1 32 1 27 23 -8 31 10 31 24 -1
9 -20 8 -26 -6 -34 -15 -9 -14 -10 5 -11 17 0 25 9 34 40 13 43 21 45 23 8 1
-26 30 -36 51 -18 18 15 10 30 -16 30 -10 0 -19 4 -19 9 0 5 10 7 22 3 14 -3
19 -2 14 7 -11 17 -67 9 -79 -10 -10 -16 -12 -16 -22 -2 -12 17 -84 30 -86 16z
m31 -13 c0 -5 -7 -10 -16 -10 -8 0 -12 5 -9 10 3 6 10 10 16 10 5 0 9 -4 9
-10z m10 -24 c0 -2 -7 -6 -15 -10 -8 -3 -15 -1 -15 4 0 6 7 10 15 10 8 0 15
-2 15 -4z m130 -6 c0 -5 -4 -10 -9 -10 -6 0 -13 5 -16 10 -3 6 1 10 9 10 9 0
16 -4 16 -10z"/>
<path d="M844 266 c-10 -25 0 -51 20 -54 27 -6 48 25 35 49 -12 22 -47 25 -55
5z m31 -16 c-3 -4 1 -11 7 -13 7 -3 3 -6 -9 -6 -16 -1 -20 3 -16 19 3 11 9 17
14 14 5 -3 7 -9 4 -14z"/>
</g>
</svg>
